<svg version="1.1" id="Layer_1" xmlns="http://www.w3.org/2000/svg" xmlns:xlink="http://www.w3.org/1999/xlink" x="0px" y="0px"
	 width="100%" viewBox="0 0 496 496" enable-background="new 0 0 496 496" xml:space="preserve">
<path fill="#000000" opacity="1.000000" stroke="none" 
	d="
M393.082581,271.123474 
	C376.620117,257.269470 356.486847,251.802872 336.358246,246.368668 
	C313.214691,240.120499 290.041199,233.965820 267.991943,224.348953 
	C263.459137,222.371948 259.126587,219.935730 254.264893,217.491547 
	C250.229187,227.525589 246.309189,237.196960 242.446854,246.891312 
	C235.476318,264.387177 227.385666,281.380341 219.459473,298.449951 
	C217.732391,302.169342 215.362152,305.110260 212.149002,307.703217 
	C193.608383,322.665253 175.080521,337.648468 156.810501,352.937775 
	C149.911087,358.711548 146.619766,358.889587 138.118179,351.999969 
	C133.001495,347.853516 129.795242,342.076813 126.803360,336.276276 
	C116.278023,315.870087 110.226639,293.845062 103.652077,272.016785 
	C95.879486,246.210892 89.068092,220.091278 78.601959,195.168808 
	C75.439095,187.637238 71.873634,180.285446 67.128418,173.587601 
	C57.773968,160.383896 50.409531,158.112808 35.564400,163.924698 
	C32.743366,161.528229 31.839409,157.831039 29.961287,154.774323 
	C28.743408,152.792175 30.086267,151.401245 31.604954,150.136032 
	C50.934673,134.032486 70.263809,117.928085 89.539795,101.760376 
	C92.617897,99.178627 95.872482,99.244507 99.373245,100.341461 
	C105.553963,102.278175 109.941696,106.489830 113.611908,111.600029 
	C124.358109,126.562439 130.374756,143.708588 136.238052,160.902481 
	C147.569397,194.131134 155.752563,228.341522 167.474747,261.447113 
	C170.568161,270.183472 173.791443,278.910034 178.976227,286.818756 
	C181.137009,285.519684 181.608536,283.670807 182.207321,282.030945 
	C194.478638,248.424271 206.421234,214.711609 213.183029,179.445740 
	C214.214279,174.067291 215.049362,168.626892 215.553131,163.176132 
	C217.150116,145.897171 203.558868,135.067032 186.559555,139.935928 
	C179.128815,142.064194 172.324173,145.629745 165.750275,149.555389 
	C162.692703,151.381256 161.242767,151.017410 159.548813,147.921082 
	C153.606247,137.058929 151.654434,139.563171 162.489761,130.381149 
	C178.984344,116.403381 196.707092,104.332886 217.724106,98.045990 
	C231.155228,94.028282 244.552094,93.251701 257.610657,99.578537 
	C259.419952,100.455132 261.037689,100.321053 262.866028,99.677559 
	C302.960266,85.566208 341.761200,90.186768 379.614532,107.889488 
	C383.678711,109.790169 387.584473,112.032509 391.537201,114.165512 
	C392.090424,114.464035 392.490997,115.045410 392.920624,115.456062 
	C388.828430,125.481590 388.836945,125.454277 378.651398,122.278687 
	C372.545898,120.375153 366.644318,117.723953 359.828827,117.672310 
	C362.205078,119.027672 364.549042,120.443901 366.963959,121.726540 
	C373.194427,125.035713 378.929260,128.970093 383.458618,134.471313 
	C385.052582,136.407364 386.510986,138.432907 387.236328,140.876663 
	C389.119904,147.222610 387.233459,149.747437 380.593689,149.290817 
	C374.010681,148.838120 368.126709,145.858826 362.077423,143.561447 
	C350.718140,139.247498 339.418182,134.570297 327.307098,132.946655 
	C310.860016,130.741730 294.800232,132.305740 279.497101,139.390442 
	C275.063080,141.443207 272.840881,144.686783 272.453461,149.360748 
	C271.984955,155.012512 270.913422,160.563934 269.405426,166.002136 
	C268.288849,170.028702 269.613525,172.579117 272.959900,174.770538 
	C282.131500,180.776688 292.289917,184.467834 302.653656,187.647568 
	C324.601379,194.381424 346.965179,199.731339 368.603577,207.498993 
	C386.409851,213.890991 403.492920,221.531235 417.986298,234.142838 
	C440.244446,253.511108 447.289490,286.387787 433.993744,311.338745 
	C425.081726,328.063171 410.164825,337.504181 392.793579,343.354004 
	C375.702240,349.109528 358.047211,352.111359 340.036652,353.467529 
	C313.757446,355.446350 287.450775,355.258911 261.148438,354.997192 
	C253.233200,354.918457 245.158707,354.892487 237.421234,352.459381 
	C231.657776,350.646973 231.343933,349.803223 233.928482,344.293274 
	C235.585526,340.760590 233.933884,339.299774 230.399612,339.366425 
	C223.722351,339.492401 217.065125,339.345062 210.625000,337.322723 
	C208.575287,336.679047 206.457932,335.958008 204.680359,334.798798 
	C200.434982,332.030304 200.230652,327.118530 204.633926,324.726685 
	C211.875824,320.792847 219.163559,316.361389 228.116928,318.472351 
	C229.027695,318.687103 230.315094,318.692719 231.014313,318.203979 
	C238.910019,312.684662 248.154144,313.414795 256.925323,313.129730 
	C270.055176,312.703064 283.221741,313.575592 296.373474,313.611481 
	C313.521606,313.658234 330.652954,313.148163 347.683350,310.829834 
	C349.943665,310.522156 352.332336,310.126953 353.989532,312.577606 
	C354.974518,314.034180 356.687714,313.894836 358.122772,313.502380 
	C361.935699,312.459717 365.698212,311.232697 369.721436,310.005554 
	C368.294861,308.642975 366.398438,310.551636 365.222717,308.155457 
	C369.212097,306.697052 373.149200,305.187744 377.134979,303.820343 
	C381.103668,302.458862 384.708191,300.398560 388.271545,298.257111 
	C396.242004,293.467133 399.450195,286.720184 396.892639,277.221436 
	C397.773102,277.432220 398.383423,277.978058 399.370941,278.861176 
	C397.269440,271.485352 392.888184,265.954163 386.884766,263.062469 
	C389.430176,265.761047 392.372711,267.624146 393.082581,271.123474 
M311.403412,234.348663 
	C312.234863,234.395172 313.066284,234.441696 313.897736,234.488220 
	C313.924774,234.246078 313.951782,234.003937 313.978821,233.761795 
	C307.105927,232.085190 300.233063,230.408600 293.360168,228.731995 
	C293.274994,229.056168 293.189819,229.380325 293.104614,229.704483 
	C298.985626,231.179291 304.866608,232.654099 311.403412,234.348663 
z"/>
</svg>